<svg width="50" height="50" viewBox="0 0 50 50" fill="none" xmlns="http://www.w3.org/2000/svg">
<circle cx="25" cy="25" r="24.5" fill="#FFD365" stroke="#4B4D0B"/>
<g clip-path="url(#clip0_292_217)">
<mask id="mask0_292_217" style="mask-type:alpha" maskUnits="userSpaceOnUse" x="8" y="8" width="35" height="35">
<path d="M43 8H8V43H43V8Z" fill="white"/>
</mask>
<g mask="url(#mask0_292_217)">
<path d="M17.7087 21.8542C17.7087 23.5916 16.3002 25 14.5628 25C12.8254 25 11.417 23.5916 11.417 21.8542C11.417 20.1168 12.8254 18.7084 14.5628 18.7084C16.3002 18.7084 17.7087 20.1168 17.7087 21.8542Z" fill="#FDF99A" stroke="black"/>
<path d="M24.2712 16.0208C24.2712 17.7582 22.8627 19.1667 21.1253 19.1667C19.3879 19.1667 17.9795 17.7582 17.9795 16.0208C17.9795 14.2834 19.3879 12.875 21.1253 12.875C22.8627 12.875 24.2712 14.2834 24.2712 16.0208Z" fill="#FDF99A" stroke="black"/>
<path d="M33.0212 16.0208C33.0212 17.7582 31.6127 19.1667 29.8753 19.1667C28.1379 19.1667 26.7295 17.7582 26.7295 16.0208C26.7295 14.2834 28.1379 12.875 29.8753 12.875C31.6127 12.875 33.0212 14.2834 33.0212 16.0208Z" fill="#FDF99A" stroke="black"/>
<path d="M39.5837 21.8542C39.5837 23.5916 38.1752 25 36.4378 25C34.7004 25 33.292 23.5916 33.292 21.8542C33.292 20.1168 34.7004 18.7084 36.4378 18.7084C38.1752 18.7084 39.5837 20.1168 39.5837 21.8542Z" fill="#FDF99A" stroke="black"/>
<path d="M33.383 28.6828L33.3959 28.6979L33.4099 28.7119C33.5251 28.8271 33.641 28.9423 33.757 29.0575C34.6204 29.9152 35.4898 30.7787 36.1381 31.7389C36.8568 32.8033 37.27 33.9402 37.0801 35.2514C36.6857 36.594 35.7323 37.8808 34.0713 38.2518C33.8836 38.2862 33.5411 38.2804 33.0168 38.2298C32.5848 38.1882 32.074 38.1215 31.4925 38.0457C31.382 38.0313 31.269 38.0165 31.1535 38.0015C29.7178 37.8155 27.9361 37.6 26.0926 37.6H25.8301C23.9861 37.6 22.2039 37.8192 20.7686 38.0071C20.6666 38.0204 20.5665 38.0336 20.4684 38.0465C19.8711 38.1251 19.3475 38.194 18.9065 38.2359C18.3796 38.286 18.0389 38.2895 17.8549 38.2526C16.1905 37.8824 15.2372 36.6078 14.843 35.2531C14.6598 33.9494 15.076 32.8158 15.7969 31.7524C16.4463 30.7944 17.3149 29.9316 18.1775 29.0748C18.2944 28.9587 18.4112 28.8426 18.5274 28.7265L18.5404 28.7135L18.5524 28.6995C19.3762 27.7447 20.1114 26.8782 20.8666 25.9881C21.2883 25.4911 21.7162 24.9867 22.1693 24.4556C22.839 23.6864 23.6128 22.983 24.5048 22.6771V22.6772L24.5135 22.6741C24.6486 22.6249 24.7819 22.5887 24.9133 22.5649L24.9183 22.5639C25.2428 22.5015 25.5884 22.5 25.9759 22.5C26.3612 22.5 26.7122 22.5011 27.0292 22.5512C27.1589 22.5751 27.2904 22.611 27.4238 22.6595V22.6596L27.4325 22.6626C28.3268 22.9692 29.1159 23.6755 29.7661 24.4388L29.7682 24.4412C30.5897 25.3934 31.3199 26.2541 32.0732 27.1418C32.4958 27.64 32.9257 28.1467 33.383 28.6828Z" fill="#FDF99A" stroke="black"/>
</g>
</g>
<defs>
<clipPath id="clip0_292_217">
<rect width="35" height="35" fill="white" transform="translate(8 8)"/>
</clipPath>
</defs>
</svg>
